<svg width="18" height="20" viewBox="0 0 18 20" fill="none" xmlns="http://www.w3.org/2000/svg">
<path d="M14.6261 12.8653C13.6771 12.0813 13.1977 11.0827 13.1977 9.86933V8.24533C13.1977 6.192 11.6351 4.49333 9.60281 4.21333V3.57867C9.60281 3.18667 9.4015 3 9.00846 3C8.59624 3 8.40451 3.18667 8.40451 3.57867V4.21333C6.38176 4.49333 4.80958 6.192 4.80958 8.24533V9.86933C4.80958 11.0827 4.33985 12.0813 3.38121 12.8653C3.01692 13.1733 2.91152 13.5467 3.07449 13.9947C3.24705 14.4333 3.56331 14.6573 4.06181 14.6667H13.9455C14.5303 14.6667 15 14.2 15 13.64C15 13.3413 14.8658 13.0613 14.6261 12.8653ZM9.00846 17C9.53571 16.9907 10.015 16.832 10.4272 16.5053C10.8395 16.1693 11.0983 15.7587 11.2038 15.2453H6.79393C6.90897 15.7587 7.15829 16.1693 7.58968 16.5053C7.99231 16.832 8.46203 16.9907 9.00846 17Z" fill="#22C55E"/>
</svg>
